<?xml version="1.0" encoding="UTF-8"?>
<svg version="1.1" xmlns="http://www.w3.org/2000/svg" width="405" height="140">
<path d="M0 0 C0.90451401 -0.0127597 1.80902802 -0.02551941 2.74095154 -0.03866577 C4.19574669 -0.04200424 4.19574669 -0.04200424 5.67993164 -0.04541016 C7.1851815 -0.05539536 7.1851815 -0.05539536 8.72084045 -0.06558228 C10.84154428 -0.07569995 12.96227988 -0.08039957 15.08300781 -0.08007812 C18.32483395 -0.08445208 21.56529937 -0.12078388 24.80688477 -0.15869141 C26.86872907 -0.16455959 28.93057984 -0.16852897 30.99243164 -0.17041016 C32.44419044 -0.19196671 32.44419044 -0.19196671 33.92527771 -0.21395874 C38.28034071 -0.18443485 40.72256182 -0.12952349 44.49536133 2.20092773 C46.38622447 4.27259922 47.16844379 5.39189348 47.71508789 8.10302734 C47.92584961 9.04082031 47.92584961 9.04082031 48.14086914 9.99755859 C48.49488589 13.09916804 48.41778808 16.1713133 48.40258789 19.29052734 C49.28519287 19.31034668 50.16779785 19.33016602 51.07714844 19.35058594 C54.36680746 19.428906 57.65602753 19.5156059 60.9453125 19.60791016 C62.36612519 19.64607883 63.78703052 19.68095247 65.20800781 19.71240234 C67.25627644 19.758318 69.30391398 19.81626539 71.35180664 19.87646484 C72.5824585 19.90788574 73.81311035 19.93930664 75.08105469 19.97167969 C78.25622844 20.2764777 80.53684846 20.93494936 83.40258789 22.29052734 C83.40258789 22.95052734 83.40258789 23.61052734 83.40258789 24.29052734 C84.06258789 24.29052734 84.72258789 24.29052734 85.40258789 24.29052734 C89.02406357 30.83960016 88.75319022 36.87169396 88.59008789 44.22802734 C88.57655273 45.38882813 88.56301758 46.54962891 88.54907227 47.74560547 C88.51390199 50.59439787 88.46468076 53.44221579 88.40258789 56.29052734 C89.39258789 56.29052734 90.38258789 56.29052734 91.40258789 56.29052734 C91.55727539 55.36240234 91.55727539 55.36240234 91.71508789 54.41552734 C92.40258789 52.29052734 92.40258789 52.29052734 95.40258789 50.29052734 C97.34008789 50.02490234 97.34008789 50.02490234 99.40258789 50.04052734 C100.08321289 50.03537109 100.76383789 50.03021484 101.46508789 50.02490234 C103.40258789 50.29052734 103.40258789 50.29052734 106.40258789 52.29052734 C106.40258789 52.95052734 106.40258789 53.61052734 106.40258789 54.29052734 C107.06258789 54.29052734 107.72258789 54.29052734 108.40258789 54.29052734 C109.7386728 61.33533866 109.7386728 61.33533866 108.21508789 65.66552734 C106.3267366 68.40038094 105.55599166 69.38955484 102.40258789 70.29052734 C98.46250806 70.79351626 96.89221105 70.6098468 93.52758789 68.41552734 C92.82633789 67.71427734 92.12508789 67.01302734 91.40258789 66.29052734 C91.40258789 65.63052734 91.40258789 64.97052734 91.40258789 64.29052734 C90.08258789 64.29052734 88.76258789 64.29052734 87.40258789 64.29052734 C87.32008789 64.90927734 87.23758789 65.52802734 87.15258789 66.16552734 C86.40258789 68.29052734 86.40258789 68.29052734 84.76586914 69.39208984 C80.76937915 70.91141662 76.63381046 70.75449 72.39868164 70.94677734 C69.22378836 71.08021768 69.22378836 71.08021768 66.40258789 73.29052734 C60.95814345 72.8460829 60.95814345 72.8460829 58.40258789 70.29052734 C58.20727539 68.12646484 58.20727539 68.12646484 58.27758789 65.66552734 C58.29563477 64.84826172 58.31368164 64.03099609 58.33227539 63.18896484 C58.35547852 62.56248047 58.37868164 61.93599609 58.40258789 61.29052734 C59.06258789 61.29052734 59.72258789 61.29052734 60.40258789 61.29052734 C60.40258789 60.63052734 60.40258789 59.97052734 60.40258789 59.29052734 C63.04258789 59.29052734 65.68258789 59.29052734 68.40258789 59.29052734 C68.40258789 59.95052734 68.40258789 60.61052734 68.40258789 61.29052734 C71.31910963 61.45733843 71.31910963 61.45733843 74.40258789 61.29052734 C81.2744306 54.41868463 77.0428992 42.00212188 77.40258789 32.29052734 C38.46258789 32.29052734 -0.47741211 32.29052734 -40.59741211 32.29052734 C-40.59741211 43.18052734 -40.59741211 54.07052734 -40.59741211 65.29052734 C-34.65741211 65.29052734 -28.71741211 65.29052734 -22.59741211 65.29052734 C-22.59741211 68.59052734 -22.59741211 71.89052734 -22.59741211 75.29052734 C-26.86801828 75.40641896 -31.13822195 75.47767536 -35.40991211 75.54052734 C-36.62485352 75.57404297 -37.83979492 75.60755859 -39.09155273 75.64208984 C-40.25493164 75.65498047 -41.41831055 75.66787109 -42.61694336 75.68115234 C-44.2272644 75.71257324 -44.2272644 75.71257324 -45.87011719 75.74462891 C-48.59741211 75.29052734 -48.59741211 75.29052734 -50.45947266 73.50048828 C-52.06110623 70.38999974 -51.79584049 67.72995257 -51.59741211 64.29052734 C-55.55741211 64.29052734 -59.51741211 64.29052734 -63.59741211 64.29052734 C-64.25741211 65.61052734 -64.91741211 66.93052734 -65.59741211 68.29052734 C-68.25198142 70.35519236 -69.68562971 70.28737672 -73.09741211 70.16552734 C-76.89478122 69.21618507 -78.21212713 68.31800443 -80.59741211 65.29052734 C-82.10959881 62.26615395 -81.7700458 59.628112 -81.59741211 56.29052734 C-80.40973356 52.91021146 -79.69915986 52.35835918 -76.59741211 50.29052734 C-72.46735536 49.70486552 -68.77336783 49.68820856 -65.03491211 51.60302734 C-63.59741211 53.29052734 -63.59741211 53.29052734 -63.59741211 56.29052734 C-59.63741211 56.29052734 -55.67741211 56.29052734 -51.59741211 56.29052734 C-51.65541992 54.33888672 -51.71342773 52.38724609 -51.77319336 50.37646484 C-51.82009644 47.80617627 -51.865596 45.23586182 -51.90991211 42.66552734 C-51.95180664 41.38033203 -51.99370117 40.09513672 -52.03686523 38.77099609 C-52.17503033 28.10465084 -52.17503033 28.10465084 -49.32788086 24.51708984 C-44.54395302 20.61603281 -41.6533714 20.04416702 -35.42553711 20.09521484 C-34.40191071 20.09945969 -34.40191071 20.09945969 -33.35760498 20.10379028 C-31.18735904 20.11494636 -29.0175324 20.14004177 -26.84741211 20.16552734 C-25.37215767 20.17556309 -23.89689674 20.1846879 -22.42163086 20.19287109 C-18.81342269 20.21487047 -15.20545836 20.24936852 -11.59741211 20.29052734 C-11.64961914 18.96988281 -11.64961914 18.96988281 -11.70288086 17.62255859 C-11.72995117 16.46111328 -11.75702148 15.29966797 -11.78491211 14.10302734 C-11.83711914 12.38019531 -11.83711914 12.38019531 -11.89038086 10.62255859 C-11.5664115 6.93794704 -10.87763905 5.17539873 -8.59741211 2.29052734 C-5.65992797 0.4852793 -3.42361773 0.03290415 0 0 Z M-0.59741211 12.29052734 C-0.59741211 14.93052734 -0.59741211 17.57052734 -0.59741211 20.29052734 C11.61258789 20.29052734 23.82258789 20.29052734 36.40258789 20.29052734 C36.40258789 17.65052734 36.40258789 15.01052734 36.40258789 12.29052734 C34.64186206 10.52980151 32.32362499 11.16217951 29.9786377 11.15158081 C29.22135376 11.15360504 28.46406982 11.15562927 27.68383789 11.15771484 C26.91076294 11.15675812 26.13768799 11.15580139 25.34118652 11.15481567 C23.70361246 11.15413394 22.0660357 11.15598778 20.4284668 11.16015625 C17.91326869 11.16550463 15.39824916 11.16021108 12.88305664 11.15380859 C11.29581666 11.15446938 9.70857679 11.15575054 8.12133789 11.15771484 C7.36405396 11.15569061 6.60677002 11.15366638 5.82653809 11.15158081 C2.32243226 10.84599051 2.32243226 10.84599051 -0.59741211 12.29052734 Z M-72.59741211 57.29052734 C-72.92741211 58.61052734 -73.25741211 59.93052734 -73.59741211 61.29052734 C-72.11241211 62.28052734 -72.11241211 62.28052734 -70.59741211 63.29052734 C-69.93741211 62.63052734 -69.27741211 61.97052734 -68.59741211 61.29052734 C-68.91592981 59.18231938 -68.91592981 59.18231938 -69.59741211 57.29052734 C-70.58741211 57.29052734 -71.57741211 57.29052734 -72.59741211 57.29052734 Z M97.40258789 57.29052734 C97.07258789 58.94052734 96.74258789 60.59052734 96.40258789 62.29052734 C97.39258789 62.62052734 98.38258789 62.95052734 99.40258789 63.29052734 C100.06258789 62.96052734 100.72258789 62.63052734 101.40258789 62.29052734 C101.07258789 60.64052734 100.74258789 58.99052734 100.40258789 57.29052734 C99.41258789 57.29052734 98.42258789 57.29052734 97.40258789 57.29052734 Z " fill="#E1E2E3" transform="translate(87.597412109375,3.70947265625)"/>
<path d="M0 0 C0 0.66 0 1.32 0 2 C0.66 2 1.32 2 2 2 C2 2.66 2 3.32 2 4 C2.66 4 3.32 4 4 4 C4.79831456 5.37115097 5.5883061 6.74714884 6.375 8.125 C7.03628906 9.27355469 7.03628906 9.27355469 7.7109375 10.4453125 C10.46711896 15.90756302 11.36142752 20.79215859 11.3125 26.875 C11.30831055 27.58317871 11.30412109 28.29135742 11.29980469 29.02099609 C11.10761212 37.89661264 8.25705867 44.51613083 2.09375 51.0078125 C-6.44573588 59.15640642 -14.22020692 61.55710199 -25.79931641 61.48632812 C-30.85528924 61.30070477 -34.89026288 60.42550655 -39.3359375 57.875 C-41.1292013 56.76729806 -41.1292013 56.76729806 -44 57 C-45.57069039 58.35186377 -45.57069039 58.35186377 -47.0625 60.25 C-47.66578125 60.96800781 -48.2690625 61.68601562 -48.890625 62.42578125 C-49.58671875 63.27527344 -50.2828125 64.12476562 -51 65 C-52.31947808 66.60360298 -53.64064399 68.20575517 -54.96459961 69.80566406 C-55.85499306 70.88361912 -56.74131447 71.96495218 -57.62329102 73.04980469 C-60.77887116 76.88943558 -60.77887116 76.88943558 -63 78 C-70.11699779 78.57395143 -70.11699779 78.57395143 -73.5 76.375 C-75.44280469 73.29889257 -75.52224493 71.58110811 -75 68 C-73.625 65.625 -73.625 65.625 -72 64 C-71.34 64 -70.68 64 -70 64 C-70 63.34 -70 62.68 -70 62 C-69.34 62 -68.68 62 -68 62 C-68 61.34 -68 60.68 -68 60 C-67.34 60 -66.68 60 -66 60 C-66 59.34 -66 58.68 -66 58 C-65.34 58 -64.68 58 -64 58 C-64 57.34 -64 56.68 -64 56 C-63.34 56 -62.68 56 -62 56 C-62 55.34 -62 54.68 -62 54 C-60.25 52.2734375 -60.25 52.2734375 -58 50.375 C-57.2575 49.74335937 -56.515 49.11171875 -55.75 48.4609375 C-55.1725 47.97882813 -54.595 47.49671875 -54 47 C-54.48816981 44.9098749 -55.03456422 42.90275455 -55.75390625 40.87890625 C-59.32851604 30.63859899 -59.28227201 20.02810535 -55 10 C-53.81209768 7.7288764 -52.63419324 6.00320462 -51 4 C-50.34 4 -49.68 4 -49 4 C-49 3.34 -49 2.68 -49 2 C-48.34 2 -47.68 2 -47 2 C-47 1.34 -47 0.68 -47 0 C-31.46706408 -8.86629458 -15.39975275 -11.29315201 0 0 Z M-43.65625 13.90234375 C-47.68619864 20.19328102 -47.45988233 26.85121115 -46 34 C-45.16207531 36.47408291 -44.17218176 38.65563649 -43 41 C-42.34 41 -41.68 41 -41 41 C-41 41.66 -41 42.32 -41 43 C-40.34 43 -39.68 43 -39 43 C-39 43.66 -39 44.32 -39 45 C-31.89137884 50.33146587 -25.71889741 50.68205195 -17 50 C-14.38445164 49.24895773 -12.40340139 48.31094621 -10 47 C-10 46.34 -10 45.68 -10 45 C-9.34 45 -8.68 45 -8 45 C-8 44.34 -8 43.68 -8 43 C-7.34 43 -6.68 43 -6 43 C-6 42.34 -6 41.68 -6 41 C-5.34 41 -4.68 41 -4 41 C-0.12593234 32.56006688 1.53242827 26.76355858 -1.625 17.875 C-4.81952256 10.61775711 -9.28596991 6.61711979 -16.6484375 3.69921875 C-27.3888261 0.50564805 -36.91779491 5.39981197 -43.65625 13.90234375 Z " fill="#E4E4E5" transform="translate(130,52)"/>
<path d="M0 0 C2.21681169 0.0031537 4.43227952 -0.02029165 6.64892578 -0.0456543 C8.06949703 -0.04792825 9.49007183 -0.04863034 10.91064453 -0.04760742 C12.19438965 -0.05058838 13.47813477 -0.05356934 14.80078125 -0.05664062 C20.10058511 0.49837935 23.09008615 1.94165726 26.70214844 5.86230469 C28.94372182 10.54300377 28.89543152 14.44527555 28.81689453 19.56958008 C28.81551987 21.03729103 28.81551987 21.03729103 28.81411743 22.53465271 C28.80809343 24.59639356 28.79238369 26.65812614 28.76757812 28.71972656 C28.73103814 31.8711784 28.7265593 35.02145394 28.72705078 38.1730957 C28.7172199 40.1802673 28.70556303 42.18743095 28.69189453 44.19458008 C28.68966888 45.13427139 28.68744324 46.07396271 28.68515015 47.04212952 C28.61978544 51.55624074 28.50206218 55.22201839 26.35595703 59.31567383 C25.69595703 59.31567383 25.03595703 59.31567383 24.35595703 59.31567383 C24.35595703 59.97567383 24.35595703 60.63567383 24.35595703 61.31567383 C20.59652868 63.7617063 16.81638577 63.62186855 12.48486328 63.61645508 C11.72551987 63.6207402 10.96617645 63.62502533 10.18382263 63.62944031 C8.58097326 63.63517216 6.97809788 63.63569231 5.37524414 63.63134766 C2.93021011 63.62818901 0.48638834 63.65165489 -1.95849609 63.67700195 C-3.51904145 63.6792753 -5.07959004 63.67997828 -6.64013672 63.67895508 C-7.36736435 63.68816483 -8.09459198 63.69737457 -8.84385681 63.7068634 C-13.29100597 63.66656833 -16.12327209 63.07427852 -19.64404297 60.31567383 C-21.83376043 57.03109764 -21.88988199 56.09807573 -21.87109375 52.29345703 C-21.87094269 51.27262527 -21.87079163 50.25179352 -21.87063599 49.20002747 C-21.85515213 47.54990913 -21.85515213 47.54990913 -21.83935547 45.86645508 C-21.83652557 44.73870163 -21.83369568 43.61094818 -21.83078003 42.44902039 C-21.81957213 38.84196425 -21.7944662 35.2351551 -21.76904297 31.62817383 C-21.75901397 29.18481804 -21.74988798 26.74145836 -21.74169922 24.2980957 C-21.7196308 18.3038706 -21.68614714 12.30978986 -21.64404297 6.31567383 C-20.98404297 6.31567383 -20.32404297 6.31567383 -19.64404297 6.31567383 C-19.39654297 5.69692383 -19.14904297 5.07817383 -18.89404297 4.44067383 C-15.17726196 -1.87785389 -6.39377474 -0.01906692 0 0 Z M-10.64404297 13.31567383 C-10.7450641 16.0312361 -10.78374574 18.72081921 -10.77685547 21.43676758 C-10.77781219 22.25186295 -10.77876892 23.06695831 -10.77975464 23.90675354 C-10.7804365 25.6342883 -10.77858181 27.3618256 -10.77441406 29.08935547 C-10.76907271 31.73842111 -10.77435529 34.38731667 -10.78076172 37.03637695 C-10.7801008 38.71150754 -10.77881936 40.38663801 -10.77685547 42.06176758 C-10.7788797 42.85763779 -10.78090393 43.653508 -10.7829895 44.47349548 C-10.86142952 48.52546643 -10.86142952 48.52546643 -9.64404297 52.31567383 C-1.39404297 52.31567383 6.85595703 52.31567383 15.35595703 52.31567383 C16.96422343 49.09914103 16.49775388 45.59415854 16.48876953 42.06176758 C16.48972626 41.24571548 16.49068298 40.42966339 16.4916687 39.58888245 C16.49234959 37.86312788 16.49050164 36.13737075 16.48632812 34.41162109 C16.48097171 31.76044 16.4862797 29.1094278 16.49267578 26.45825195 C16.49201512 24.78442345 16.4907342 23.11059506 16.48876953 21.43676758 C16.49079376 20.63887314 16.49281799 19.8409787 16.49490356 19.01890564 C16.82577665 15.36772106 16.82577665 15.36772106 15.35595703 12.31567383 C13.5143668 12.21607762 11.66898736 12.18486972 9.82470703 12.18286133 C8.14441406 12.18092773 8.14441406 12.18092773 6.43017578 12.17895508 C4.6609375 12.18475586 4.6609375 12.18475586 2.85595703 12.19067383 C1.67646484 12.18680664 0.49697266 12.18293945 -0.71826172 12.17895508 C-1.83845703 12.18024414 -2.95865234 12.1815332 -4.11279297 12.18286133 C-5.66643555 12.18455322 -5.66643555 12.18455322 -7.25146484 12.1862793 C-9.5970212 12.0460223 -9.5970212 12.0460223 -10.64404297 13.31567383 Z " fill="#E7E8E8" transform="translate(372.64404296875,40.684326171875)"/>
<path d="M0 0 C0.9075 0.00257812 1.815 0.00515625 2.75 0.0078125 C4.11125 0.00394531 4.11125 0.00394531 5.5 0 C7.75 0.1328125 7.75 0.1328125 8.75 1.1328125 C8.83737645 2.98650861 8.85698153 4.84348791 8.84765625 6.69921875 C8.84443359 7.82392578 8.84121094 8.94863281 8.83789062 10.10742188 C8.82951172 11.29142578 8.82113281 12.47542969 8.8125 13.6953125 C8.80798828 14.88318359 8.80347656 16.07105469 8.79882812 17.29492188 C8.78699675 20.24093476 8.77051287 23.18684931 8.75 26.1328125 C11.17953386 25.86614951 11.17953386 25.86614951 13.75 25.1328125 C15.14712274 23.17684066 16.48779907 21.17844849 17.75 19.1328125 C18.41 19.1328125 19.07 19.1328125 19.75 19.1328125 C20.03875 18.3696875 20.3275 17.6065625 20.625 16.8203125 C21.75 14.1328125 21.75 14.1328125 23.75 11.1328125 C24.41 11.1328125 25.07 11.1328125 25.75 11.1328125 C26.41 9.4828125 27.07 7.8328125 27.75 6.1328125 C28.41 6.1328125 29.07 6.1328125 29.75 6.1328125 C30.183125 5.2046875 30.183125 5.2046875 30.625 4.2578125 C31.75 2.1328125 31.75 2.1328125 33.75 0.1328125 C36.7890625 -0.0625 36.7890625 -0.0625 40.375 0.0078125 C42.15777344 0.03488281 42.15777344 0.03488281 43.9765625 0.0625 C44.89179688 0.08570313 45.80703125 0.10890625 46.75 0.1328125 C47.245 1.6178125 47.245 1.6178125 47.75 3.1328125 C47.09 4.1228125 46.43 5.1128125 45.75 6.1328125 C45.09 6.1328125 44.43 6.1328125 43.75 6.1328125 C43.75 6.7928125 43.75 7.4528125 43.75 8.1328125 C43.09 8.1328125 42.43 8.1328125 41.75 8.1328125 C41.481875 8.7103125 41.21375 9.2878125 40.9375 9.8828125 C39.72070811 12.18831293 38.44666121 14.15337442 36.75 16.1328125 C36.09 16.1328125 35.43 16.1328125 34.75 16.1328125 C34.316875 17.03 34.316875 17.03 33.875 17.9453125 C32.75 20.1328125 32.75 20.1328125 30.75 23.1328125 C30.09 23.1328125 29.43 23.1328125 28.75 23.1328125 C28.316875 24.03 28.316875 24.03 27.875 24.9453125 C26.75 27.1328125 26.75 27.1328125 24.75 30.1328125 C24.09 30.1328125 23.43 30.1328125 22.75 30.1328125 C22.75 30.7928125 22.75 31.4528125 22.75 32.1328125 C23.41 32.1328125 24.07 32.1328125 24.75 32.1328125 C24.75 32.7928125 24.75 33.4528125 24.75 34.1328125 C25.41 34.1328125 26.07 34.1328125 26.75 34.1328125 C26.75 34.7928125 26.75 35.4528125 26.75 36.1328125 C27.41 36.1328125 28.07 36.1328125 28.75 36.1328125 C29.41 37.7828125 30.07 39.4328125 30.75 41.1328125 C31.41 41.1328125 32.07 41.1328125 32.75 41.1328125 C34.1953125 42.75 34.1953125 42.75 35.875 45.0078125 C39.21606158 49.46256127 42.73571857 53.72796679 46.34375 57.96875 C46.8078125 58.68289062 47.271875 59.39703125 47.75 60.1328125 C47.42 61.1228125 47.09 62.1128125 46.75 63.1328125 C42.46 63.1328125 38.17 63.1328125 33.75 63.1328125 C33.75 62.4728125 33.75 61.8128125 33.75 61.1328125 C33.09 61.1328125 32.43 61.1328125 31.75 61.1328125 C30.2421875 59.453125 30.2421875 59.453125 28.625 57.2578125 C28.08617187 56.53851563 27.54734375 55.81921875 26.9921875 55.078125 C25.75 53.1328125 25.75 53.1328125 25.75 51.1328125 C25.09 51.1328125 24.43 51.1328125 23.75 51.1328125 C22.4609375 49.671875 22.4609375 49.671875 21.125 47.7578125 C20.67898437 47.13132813 20.23296875 46.50484375 19.7734375 45.859375 C18.75 44.1328125 18.75 44.1328125 18.75 42.1328125 C18.09 42.1328125 17.43 42.1328125 16.75 42.1328125 C16.09 41.1428125 15.43 40.1528125 14.75 39.1328125 C12.77 38.8028125 10.79 38.4728125 8.75 38.1328125 C8.75 46.3828125 8.75 54.6328125 8.75 63.1328125 C4.79 63.1328125 0.83 63.1328125 -3.25 63.1328125 C-3.27255449 55.0662866 -3.29091709 46.99978504 -3.30181217 38.93323612 C-3.30704014 35.18798213 -3.31413622 31.44275074 -3.32543945 27.69750977 C-3.33627141 24.08599563 -3.34227749 20.47450329 -3.34487724 16.86297417 C-3.34673094 15.48220921 -3.35035049 14.1014455 -3.35573006 12.72068977 C-3.36294447 10.79305298 -3.36340809 8.86539443 -3.36352539 6.93774414 C-3.365746 5.83854141 -3.36796661 4.73933868 -3.37025452 3.60682678 C-3.21514673 0.41577089 -3.17550721 0.18744313 0 0 Z " fill="#E3E4E5" transform="translate(204.25,40.8671875)"/>
<path d="M0 0 C1.72974441 0.00015918 3.45949355 0.0058569 5.18920898 0.01586914 C6.09783188 0.01728409 7.00645477 0.01869904 7.94261169 0.02015686 C10.85687494 0.02577346 13.77106254 0.03832874 16.68530273 0.05102539 C18.65600475 0.05603825 20.62670797 0.06060153 22.59741211 0.06469727 C27.43923832 0.07574828 32.28100768 0.09302401 37.12280273 0.11352539 C36.81386341 1.73920609 36.50053324 3.36405287 36.18530273 4.98852539 C36.0112793 5.89344727 35.83725586 6.79836914 35.65795898 7.73071289 C35.12280273 10.11352539 35.12280273 10.11352539 34.12280273 12.11352539 C25.21280273 12.11352539 16.30280273 12.11352539 7.12280273 12.11352539 C7.12280273 16.73352539 7.12280273 21.35352539 7.12280273 26.11352539 C15.37280273 26.11352539 23.62280273 26.11352539 32.12280273 26.11352539 C32.61780273 27.10352539 32.61780273 27.10352539 33.12280273 28.11352539 C32.13280273 31.08352539 31.14280273 34.05352539 30.12280273 37.11352539 C22.53280273 37.11352539 14.94280273 37.11352539 7.12280273 37.11352539 C7.12280273 42.06352539 7.12280273 47.01352539 7.12280273 52.11352539 C17.35280273 52.11352539 27.58280273 52.11352539 38.12280273 52.11352539 C37.25307703 56.4621539 36.17530833 59.27623232 34.12280273 63.11352539 C28.72933285 63.13817389 23.33589548 63.1563607 17.94238281 63.16845703 C16.10611399 63.17349771 14.26984919 63.18033016 12.43359375 63.18896484 C9.80003872 63.20104211 7.16653657 63.2067562 4.53295898 63.21118164 C3.29389549 63.21892357 3.29389549 63.21892357 2.02980042 63.2268219 C0.06043906 63.22701744 -1.9088134 63.17556691 -3.87719727 63.11352539 C-5.64443538 61.34628728 -5.00482559 58.81033699 -5.0065918 56.41625977 C-5.00974396 55.19829712 -5.01289612 53.98033447 -5.0161438 52.72546387 C-5.01435402 51.38606734 -5.01230306 50.04667115 -5.01000977 48.70727539 C-5.01068286 47.34346499 -5.01165293 45.97965471 -5.01290894 44.61584473 C-5.01438564 41.75422018 -5.01223223 38.89262679 -5.00756836 36.03100586 C-5.00187107 32.35533925 -5.00515022 28.67974565 -5.01114082 25.00408173 C-5.01474717 22.18690436 -5.01360751 19.36974441 -5.01101303 16.55256653 C-5.01034397 15.19692476 -5.01117147 13.84128143 -5.01349258 12.48564148 C-5.01602028 10.59402495 -5.0114874 8.7024029 -5.0065918 6.81079102 C-5.0057962 5.73236938 -5.00500061 4.65394775 -5.00418091 3.54284668 C-4.79384902 -0.48100801 -4.24810677 0.12438572 0 0 Z " fill="#E4E4E4" transform="translate(259.877197265625,40.886474609375)"/>
<path d="M0 0 C0.96357422 -0.020625 1.92714844 -0.04125 2.91992188 -0.0625 C4.31500977 -0.07023437 4.31500977 -0.07023437 5.73828125 -0.078125 C6.59075439 -0.0874707 7.44322754 -0.09681641 8.3215332 -0.10644531 C11.22937604 0.33163647 12.56952802 1.23614222 14.6875 3.25 C15.8927367 6.86571011 15.84971519 10.18847269 15.85546875 13.953125 C15.86046135 15.08714752 15.86046135 15.08714752 15.86555481 16.24407959 C15.87061583 17.84451693 15.87296339 19.44496482 15.87280273 21.04541016 C15.87497947 23.47706864 15.89311653 25.9082661 15.91210938 28.33984375 C15.91504554 29.89843596 15.91702884 31.45703031 15.91796875 33.015625 C15.92515427 33.73566711 15.93233978 34.45570923 15.93974304 35.1975708 C15.91450909 40.86104461 15.39590802 46.08601651 11.8125 50.625 C7.40258404 53.99728867 2.30918914 53.38672433 -3.02832031 53.36352539 C-3.90672577 53.36367142 -4.78513123 53.36381744 -5.69015503 53.3639679 C-8.5903369 53.36327185 -11.49045436 53.35549386 -14.390625 53.34765625 C-16.40272995 53.34579098 -18.41483535 53.34436759 -20.42694092 53.34336853 C-25.72055314 53.33955198 -31.01413789 53.32972902 -36.30773926 53.31866455 C-41.71036406 53.30843192 -47.1129933 53.30386694 -52.515625 53.29882812 C-63.1145954 53.288106 -73.71354541 53.2710399 -84.3125 53.25 C-84.3125 48.43887669 -84.3125 48.43887669 -81.97631836 45.54272461 C-75.86939104 39.83941632 -66.49304586 41.40279364 -58.69140625 41.56640625 C-56.86296997 41.57947349 -55.03450905 41.58943235 -53.20603943 41.59642029 C-48.40991711 41.62305762 -43.61529544 41.69174148 -38.81976318 41.76934814 C-33.91976214 41.84115159 -29.01951692 41.8729682 -24.11914062 41.90820312 C-14.51616403 41.98311846 -4.91469199 42.10617417 4.6875 42.25 C4.6875 32.02 4.6875 21.79 4.6875 11.25 C-0.2625 11.25 -5.2125 11.25 -10.3125 11.25 C-11.3125 10.25 -11.3125 10.25 -11.4453125 8.21875 C-11.44273437 7.4040625 -11.44015625 6.589375 -11.4375 5.75 C-11.44136719 4.52796875 -11.44136719 4.52796875 -11.4453125 3.28125 C-11.10977144 -1.85055446 -3.91373461 0.0206939 0 0 Z " fill="#DDDDDE" transform="translate(160.3125,77.75)"/>
<path d="M0 0 C15.18 0 30.36 0 46 0 C45.67 3.96 45.34 7.92 45 12 C39.72 12 34.44 12 29 12 C29 28.83 29 45.66 29 63 C25.37 63 21.74 63 18 63 C18 46.17 18 29.34 18 12 C12.06 12 6.12 12 0 12 C-1 4 -1 4 0 0 Z " fill="#E9EAEA" transform="translate(300,41)"/>
<path d="M0 0 C1.051875 -0.00386719 1.051875 -0.00386719 2.125 -0.0078125 C4 0.125 4 0.125 6 1.125 C6 1.785 6 2.445 6 3.125 C6.66 3.125 7.32 3.125 8 3.125 C8 4.115 8 5.105 8 6.125 C12.21811497 6.05612505 16.43527005 5.96816262 20.65258789 5.86254883 C22.08704628 5.82930999 23.52163513 5.80127465 24.95629883 5.77856445 C27.01960807 5.74499729 29.08172303 5.69268587 31.14453125 5.63671875 C33.00621948 5.59744263 33.00621948 5.59744263 34.90551758 5.55737305 C38.26005516 5.08866409 38.90859961 4.61669955 41 2.125 C44.61581862 1.58647382 46.34111489 1.70263775 49.4375 3.6875 C51 6.125 51 6.125 50.9375 9.75 C50 13.125 50 13.125 47 15.125 C43.875 15.3125 43.875 15.3125 41 15.125 C40.505 14.63 40.505 14.63 40 14.125 C37.66702567 14.08407063 35.33294775 14.08258277 33 14.125 C31.22162387 17.68175225 31.77252922 21.77023216 31.75 25.6875 C31.729375 26.55697266 31.70875 27.42644531 31.6875 28.32226562 C31.65502687 33.76557325 32.36687886 38.15196235 34.35253906 43.23022461 C35 45.125 35 45.125 35 48.125 C30.03383559 48.00598517 26.91925578 47.89104648 23 44.625 C22.34 43.8 21.68 42.975 21 42.125 C20.505 41.63 20.505 41.63 20 41.125 C19.91241997 39.12535018 19.89303424 37.1226389 19.90234375 35.12109375 C19.90556641 33.90615234 19.90878906 32.69121094 19.91210938 31.43945312 C19.92048828 30.16005859 19.92886719 28.88066406 19.9375 27.5625 C19.94201172 26.27923828 19.94652344 24.99597656 19.95117188 23.67382812 C19.96300445 20.4908658 19.98094056 17.30792726 20 14.125 C16.04 14.125 12.08 14.125 8 14.125 C8 15.115 8 16.105 8 17.125 C7.34 17.125 6.68 17.125 6 17.125 C6 17.785 6 18.445 6 19.125 C-2.57142857 20.41071429 -2.57142857 20.41071429 -6 19.125 C-6 18.465 -6 17.805 -6 17.125 C-6.66 17.125 -7.32 17.125 -8 17.125 C-10.34144827 13.46648709 -10.44965259 10.39669964 -10 6.125 C-7.11500862 1.70134654 -5.23331216 -0.01924012 0 0 Z M-1 7.125 C-1.33 8.445 -1.66 9.765 -2 11.125 C0.475 11.62 0.475 11.62 3 12.125 C3 10.475 3 8.825 3 7.125 C1.68 7.125 0.36 7.125 -1 7.125 Z " fill="#DBDCDC" transform="translate(16,82.875)"/>
<path d="M0 0 C0.66 0 1.32 0 2 0 C0.84826645 2.46800047 -0.04783565 4.04783565 -2 6 C-2.33052455 8.18124591 -2.33052455 8.18124591 -2.31884766 10.72509766 C-2.33871735 11.70596344 -2.35858704 12.68682922 -2.37905884 13.69741821 C-2.39061005 14.75891083 -2.40216125 15.82040344 -2.4140625 16.9140625 C-2.43342865 17.99883881 -2.4527948 19.08361511 -2.4727478 20.20126343 C-2.53266426 23.67576159 -2.57897739 27.15029267 -2.625 30.625 C-2.66316865 32.97657718 -2.70221971 35.32814021 -2.7421875 37.6796875 C-2.83837559 43.4529997 -2.92338753 49.22639666 -3 55 C-3.33 55 -3.66 55 -4 55 C-4 38.17 -4 21.34 -4 4 C-3.34 4 -2.68 4 -2 4 C-1.34 2.68 -0.68 1.36 0 0 Z " fill="#AFB2B5" transform="translate(355,43)"/>
<path d="M0 0 C0.66 0 1.32 0 2 0 C0.82403413 2.88646167 -0.23291839 4.20519001 -2.625 6.3125 C-5.37334995 8.88197404 -5.37334995 8.88197404 -5.3125 12.8125 C-5.209375 13.864375 -5.10625 14.91625 -5 16 C-7 14 -7 14 -7.3125 11.125 C-6.97238945 7.72389447 -6.39158579 6.39158579 -4 4 C-3.34 4 -2.68 4 -2 4 C-2 3.34 -2 2.68 -2 2 C-1.34 2 -0.68 2 0 2 C0 1.34 0 0.68 0 0 Z " fill="#898C8D" transform="translate(62,112)"/>
<path d="M0 0 C1.21236328 0.02707031 1.21236328 0.02707031 2.44921875 0.0546875 C3.37154297 0.08949219 3.37154297 0.08949219 4.3125 0.125 C4.3125 0.455 4.3125 0.785 4.3125 1.125 C2.641875 1.24875 2.641875 1.24875 0.9375 1.375 C-2.74503944 1.70373787 -2.74503944 1.70373787 -4.125 4.1875 C-4.310625 4.826875 -4.49625 5.46625 -4.6875 6.125 C-6.0075 6.125 -7.3275 6.125 -8.6875 6.125 C-8.375 4.25 -8.375 4.25 -7.6875 2.125 C-4.48369983 -0.01086678 -3.66810033 -0.10632175 0 0 Z " fill="#AEB0B2" transform="translate(15.6875,53.875)"/>
</svg>
